<?xml version="1.0" encoding="UTF-8"?>
<svg width="51" height="50" viewBox="0 0 51 50" fill="none" xmlns="http://www.w3.org/2000/svg">
  <path d="M34.2632 16.2848C33.0824 7.56998 30.0927 0.293945 25.5 0.293945C20.9086 0.293945 17.9189 7.56872 16.7368 16.2848C7.88794 17.4477 0.5 20.3922 0.5 24.9153C0.5 29.4371 7.88794 32.3816 16.7368 33.5457C17.9176 42.2593 20.9073 49.5366 25.5 49.5366C30.0914 49.5366 33.0811 42.2606 34.2632 33.5457C43.1121 32.3816 50.5 29.4384 50.5 24.9153C50.5 20.3922 43.1108 17.4477 34.2632 16.2848ZM16.449 31.0057C7.97365 29.8 3.03173 27.0408 3.03173 24.914C3.03173 22.7873 7.97493 20.0281 16.449 18.8223C16.2622 20.8319 16.165 22.883 16.165 24.914C16.165 26.945 16.2622 28.9987 16.449 31.0057ZM25.5013 2.78607C27.6607 2.78607 30.4624 7.65439 31.6867 16.0001C29.6475 15.8161 27.5635 15.7204 25.5013 15.7204C23.4391 15.7204 21.3551 15.8161 19.3159 16.0001C20.5402 7.65313 23.3418 2.78607 25.5013 2.78607ZM34.5523 31.0057C34.1352 31.0662 32.4235 31.2628 31.9911 31.3056C31.9489 31.7327 31.7468 33.4172 31.6867 33.828C30.4624 42.1749 27.6607 47.0432 25.5013 47.0432C23.3418 47.0432 20.5402 42.1749 19.3159 33.828C19.2558 33.4172 19.0536 31.7314 19.0114 31.3056C18.8144 29.3275 18.6954 27.202 18.6954 24.914C18.6954 22.6273 18.8144 20.5018 19.0114 18.5212C21.0199 18.3272 23.1781 18.21 25.5013 18.21C27.8232 18.21 29.9814 18.3272 31.9911 18.5212C32.4248 18.5628 34.1352 18.7618 34.5523 18.8211C43.0276 20.0268 47.9721 22.7873 47.9721 24.9128C47.9708 27.0382 43.0276 29.8 34.5523 31.0057Z" fill="#000"/>
</svg>
