<svg xmlns="http://www.w3.org/2000/svg" viewBox="0 0 617.1 151.37"><defs><style>.cls-1{fill:#fff;}</style></defs><g id="Calque_2" data-name="Calque 2"><g id="Calque_1-2" data-name="Calque 1"><path class="cls-1" d="M199.1,45.47h32V149.88h-32V135.65a35.1,35.1,0,0,1-13.19,11.14A40.32,40.32,0,0,1,167.48,151a41.32,41.32,0,0,1-21.14-5.33,35.93,35.93,0,0,1-14.22-15.44q-5.06-10.11-5.06-23.76v-61h31.81v56.69q0,10.49,5.43,16.28t14.59,5.8q9.36,0,14.79-5.8t5.42-16.28Zm109.27-1.13a41.66,41.66,0,0,0-18.52,4,33.75,33.75,0,0,0-13.1,10.94V45.47h-32V149.88h32V93.18q0-10.47,5.43-16.28t14.59-5.8q9.17,0,14.6,5.8t5.42,16.28v56.7H348.6v-61q0-20.77-10.94-32.65T308.37,44.34Zm98.61,27q12.34,0,16.65,12h34.06q-4.12-18.7-17.31-29T407.54,44q-15.35,0-27.22,6.55a46.12,46.12,0,0,0-18.53,18.71q-6.65,12.17-6.64,28.44t6.64,28.44a46.06,46.06,0,0,0,18.53,18.71q11.88,6.56,27.22,6.55,19.45,0,32.75-10.48t17.4-28.81H423.63q-4.31,12-16.65,12a16.76,16.76,0,0,1-14-6.83q-5.25-6.82-5.24-19.55T393,78.12A16.79,16.79,0,0,1,407,71.29ZM529.54,44.34a42.5,42.5,0,0,0-18.9,4.12,34.39,34.39,0,0,0-13.29,11V11.41h-32V149.88h32V93.18q0-10.47,5.43-16.28t14.59-5.8q9.17,0,14.6,5.8t5.43,16.28v56.7h31.8v-61q0-20.77-10.85-32.65T529.54,44.34Zm52.58,105.54h32l.09-104.41H582.12ZM598.21,34.62a19.16,19.16,0,0,0,13.56-5A16.06,16.06,0,0,0,617.1,17.4,16.24,16.24,0,0,0,611.77,5a19.11,19.11,0,0,0-13.56-5q-8.43,0-13.76,5a16.28,16.28,0,0,0-5.33,12.44,16.09,16.09,0,0,0,5.33,12.26Q589.79,34.61,598.21,34.62ZM80.79,16.18V84.89c0-9.28-47.36-40.85-47.36-68.71H0V149.89H33.43V81.18h0c0,9.28,47.36,42.71,47.36,68.71h33.43V16.18Z"/></g></g></svg>