<svg xmlns="http://www.w3.org/2000/svg" xmlns:xlink="http://www.w3.org/1999/xlink" viewBox="0 0 617.66 151.37"><defs><style>.cls-1{fill:#5132ff;}.cls-2{fill:url(#Dégradé_sans_nom_59);}</style><linearGradient id="Dégradé_sans_nom_59" x1="34.67" y1="82.78" x2="79.97" y2="82.78" gradientUnits="userSpaceOnUse"><stop offset="0" stop-color="#2d1d97"/><stop offset="0.02" stop-color="#3321a9"/><stop offset="0.05" stop-color="#3c26c4"/><stop offset="0.09" stop-color="#442ada"/><stop offset="0.14" stop-color="#4a2eeb"/><stop offset="0.19" stop-color="#4e30f6"/><stop offset="0.27" stop-color="#5032fd"/><stop offset="0.49" stop-color="#5132ff"/><stop offset="0.72" stop-color="#5032fd"/><stop offset="0.8" stop-color="#4e30f6"/><stop offset="0.86" stop-color="#4a2eeb"/><stop offset="0.91" stop-color="#442ada"/><stop offset="0.95" stop-color="#3c26c4"/><stop offset="0.98" stop-color="#3321a9"/><stop offset="1" stop-color="#2d1d97"/></linearGradient></defs><g id="Calque_2" data-name="Calque 2"><g id="Calque_1-2" data-name="Calque 1"><path class="cls-1" d="M199.66,45.47h32V149.88h-32V135.65a35.17,35.17,0,0,1-13.19,11.14A40.35,40.35,0,0,1,168,151a41.33,41.33,0,0,1-21.15-5.33,36.05,36.05,0,0,1-14.22-15.44q-5-10.11-5-23.76v-61h31.81v56.69q0,10.49,5.43,16.28t14.59,5.8q9.36,0,14.78-5.8t5.43-16.28Zm109.27-1.13a41.63,41.63,0,0,0-18.52,4,33.75,33.75,0,0,0-13.1,10.94V45.47h-32V149.88h32V93.18q0-10.47,5.43-16.28t14.59-5.8q9.17,0,14.59,5.8t5.43,16.28v56.7h31.81v-61q0-20.77-11-32.65T308.93,44.34Zm98.61,27q12.34,0,16.65,12h34.06q-4.12-18.7-17.31-29T408.1,44q-15.35,0-27.23,6.55a46.15,46.15,0,0,0-18.52,18.71q-6.64,12.17-6.64,28.44t6.64,28.44a46.09,46.09,0,0,0,18.52,18.71q11.89,6.56,27.23,6.55,19.45,0,32.74-10.48t17.41-28.81H424.19q-4.31,12-16.65,12a16.78,16.78,0,0,1-14-6.83q-5.24-6.82-5.23-19.55t5.23-19.55A16.81,16.81,0,0,1,407.54,71.29ZM530.09,44.34a42.49,42.49,0,0,0-18.89,4.12,34.24,34.24,0,0,0-13.29,11V11.41h-32V149.88h32V93.18q0-10.47,5.43-16.28t14.59-5.8q9.17,0,14.6,5.8T538,93.18v56.7h31.81v-61q0-20.77-10.85-32.65T530.09,44.34Zm52.58,105.54h32l.08-104.41H582.67ZM598.76,34.62a19.18,19.18,0,0,0,13.57-5,16.09,16.09,0,0,0,5.33-12.26A16.28,16.28,0,0,0,612.33,5a19.14,19.14,0,0,0-13.57-5Q590.35,0,585,5a16.28,16.28,0,0,0-5.33,12.44A16.09,16.09,0,0,0,585,29.66Q590.35,34.61,598.76,34.62Z"/><path class="cls-2" d="M33.58,15.63V80.92c0,9.32,47.57,42.9,47.57,69V84.65C81.15,75.32,33.58,43.61,33.58,15.63Z"/><rect class="cls-1" y="15.63" width="33.58" height="134.3"/><rect class="cls-1" x="81.15" y="15.63" width="33.58" height="134.3"/></g></g></svg>